<?xml version="1.0" encoding="UTF-8"?><svg width="300" height="300" viewBox="0 0 59.99999856948854 59.99999856948855" xmlns="http://www.w3.org/2000/svg"><g transform="matrix(.10493 0 0 -.10547 -13.364 74.998)" display="none" opacity=".32039"><path d="m373.18 671.1c-17-58-32-67-75-47-79 38-117 1-78-74 22-43 11-65-41-79-24-7-46-19-49-26-11-29 11-60 52-72 48-15 57-33 36-73-19-37-15-78 8-93 13-8 28-5 62 11 52 26 66 19 86-42 11-33 15-36 48-33 31 3 37 8 49 43 18 52 29 57 74 34 50-25 65-24 84 5 15 23 15 27-4 65-26 50-20 66 32 84 38 12 42 17 42 48s-4 35-43 49c-52 18-59 37-32 90 21 40 21 43 3 62-18 20-34 20-90-3-39-16-55-5-72 51-11 37-15 40-46 40s-35-3-46-40zm117-174c58-58 42-141-33-173-69-28-143 23-143 99 0 32 7 47 34 74 47 47 95 47 142 0z" stroke-width=".95059"/></g><path transform="scale(.1)" d="m300 0c-64.168-0.58871-21.54 75.134-80.826 99.691-60.901 25.226-84.269-58.006-131.31-11.824-45.79 44.957 37.899 68.361 13.342 127.65-25.226 60.901-100.6 18.57-101.21 84.486-0.58871 64.168 75.134 21.54 99.691 80.826 25.226 60.901-58.006 84.269-11.824 131.31 44.957 45.79 68.361-37.899 127.65-13.342 60.901 25.226 18.57 100.6 84.486 101.21 64.168 0.58871 21.54-75.134 80.826-99.691 60.901-25.226 84.269 58.006 131.31 11.824 45.79-44.957-37.899-68.361-13.342-127.65 25.226-60.901 100.6-18.57 101.21-84.486 0.58871-64.168-75.134-21.54-99.691-80.826-25.226-60.901 58.006-84.269 11.824-131.31-44.957-45.79-68.361 37.899-127.65 13.342-60.901-25.226-18.57-100.6-84.486-101.21zm0 190a110 110 0 0 1 110 110 110 110 0 0 1 -110 110 110 110 0 0 1 -110 -110 110 110 0 0 1 110 -110z" fill="#212121" style="paint-order:markers fill stroke"/></svg>